<svg width="24" height="24" viewBox="0 0 24 24" xmlns="http://www.w3.org/2000/svg">
<path fill-rule="evenodd" clip-rule="evenodd" d="M10.5 2C5.80558 2 2 5.80558 2 10.5C2 15.1944 5.80558 19 10.5 19C12.4869 19 14.3145 18.3183 15.7618 17.176L20.2929 21.7071C20.6835 22.0976 21.3166 22.0976 21.7072 21.7071C22.0977 21.3166 22.0977 20.6834 21.7072 20.2929L17.1761 15.7618C18.3183 14.3145 19 12.4869 19 10.5C19 5.80558 15.1944 2 10.5 2ZM15.1596 15.0319C16.2985 13.8611 17 12.2625 17 10.5C17 6.91015 14.0899 4 10.5 4C6.91015 4 4 6.91015 4 10.5C4 14.0899 6.91015 17 10.5 17C12.2625 17 13.8611 16.2985 15.032 15.1595C15.0511 15.1366 15.0714 15.1144 15.0929 15.0929C15.1145 15.0714 15.1367 15.0511 15.1596 15.0319Z" />
</svg>
