<svg width="16" height="17" viewBox="0 0 16 17" xmlns="http://www.w3.org/2000/svg">
<g clip-path="url(#clip0_2407_26530)">
<path d="M0.8887 5.36532H9.84441V3.58789H0.8887C0.397906 3.58789 0 3.9858 0 4.47659C0 4.96738 0.397906 5.36532 0.8887 5.36532Z" />
<path d="M0.8887 8.93173H9.84441V7.1543H0.8887C0.397906 7.1543 0 7.5522 0 8.04303C0 8.53386 0.397906 8.93173 0.8887 8.93173Z" />
<path d="M0.8887 10.7188V10.7188C0.397906 10.7188 0 11.1167 0 11.6075C0 12.0983 0.397906 12.4962 0.8887 12.4962H7.11047C7.04018 12.2797 7.00308 12.0514 7.00308 11.8173C7.00308 11.4251 7.10591 11.0489 7.29798 10.7188H0.8887Z" />
<path d="M15.6707 11.0237C15.2318 10.5848 14.5202 10.5848 14.0813 11.0237L13.1585 11.9465V2.34065C13.1585 1.71994 12.6553 1.2168 12.0346 1.2168C11.4139 1.2168 10.9107 1.71997 10.9107 2.34065V11.9465L9.98792 11.0237C9.54901 10.5848 8.83742 10.5848 8.39852 11.0237C7.95961 11.4626 7.95961 12.1742 8.39852 12.6131L11.2397 15.4542C11.6777 15.8924 12.3902 15.8939 12.8295 15.4542L15.6707 12.6131C16.1095 12.1742 16.1096 11.4626 15.6707 11.0237Z" />
</g>
<defs>
<clipPath id="clip0_2407_26530">
<rect width="16" height="16" fill="white" transform="translate(0 0.5)"/>
</clipPath>
</defs>
</svg>
